<svg xmlns="http://www.w3.org/2000/svg" xmlns:xlink="http://www.w3.org/1999/xlink" version="1.1" x="0px" y="0px" viewBox="0 0 45 56.25" enable-background="new 0 0 45 45" xml:space="preserve"><g><path d="M35.972,8.5c-2.523-0.62-2.92-1.017-3.54-3.54c-0.055-0.224-0.255-0.381-0.485-0.381s-0.431,0.157-0.485,0.382   C30.845,7.483,30.448,7.88,27.925,8.5c-0.224,0.055-0.381,0.255-0.381,0.485s0.157,0.431,0.382,0.485   c2.522,0.616,2.919,1.013,3.535,3.535c0.055,0.225,0.255,0.382,0.485,0.382s0.431-0.157,0.485-0.381   c0.62-2.523,1.017-2.92,3.539-3.536c0.225-0.055,0.382-0.255,0.382-0.485S36.195,8.555,35.972,8.5z M31.947,11.161   c-0.448-1.134-1.043-1.729-2.177-2.177c1.134-0.45,1.729-1.046,2.177-2.179c0.45,1.133,1.046,1.729,2.179,2.179   C32.993,9.433,32.397,10.027,31.947,11.161z"/><path d="M21.448,11.339c-0.001-0.001-0.002-0.002-0.003-0.002c-1.629-0.571-3.444-0.393-4.893,0.49   c-1.312,0.797-2.234,2.059-2.598,3.552c-0.269,1.106-0.202,2.241,0.174,3.29c-0.317-0.108-0.65-0.181-1.004-0.181   c-1.723,0-3.125,1.402-3.125,3.125v3.264c0,1.723,1.402,3.125,3.125,3.125c0.108,0,0.211-0.021,0.316-0.032v0.188   c0,1.563,0.804,2.941,2.018,3.748v4.451c0,0.085,0.017,0.165,0.025,0.248c-0.01,0.082-0.025,0.163-0.025,0.248   c0,1.222,0.993,2.215,2.213,2.215h1.572c1.222,0,2.215-0.993,2.215-2.215c0-0.878-0.518-1.632-1.26-1.99v-2.835   c1.334-0.782,2.242-2.215,2.242-3.87v-4.084c0-0.761-0.199-1.472-0.534-2.101c0.213-0.096,0.423-0.201,0.624-0.323   c0.348-0.212,0.681-0.474,1.019-0.802c1.932-1.883,2.304-4.803,0.904-7.101C23.769,12.621,22.729,11.788,21.448,11.339z    M13.125,27.002c-1.172,0-2.125-0.953-2.125-2.125v-3.264c0-1.172,0.953-2.125,2.125-2.125s2.125,0.953,2.125,2.125v3.264   C15.25,26.049,14.297,27.002,13.125,27.002z M14.441,28.158v-0.457c0.393-0.185,0.733-0.454,1.018-0.774v3.431   c0,0.096,0.018,0.185,0.028,0.275C14.845,30.001,14.441,29.129,14.441,28.158z M20.459,36.854c0,0.67-0.545,1.215-1.215,1.215   h-1.572c-0.669,0-1.213-0.545-1.213-1.215s0.544-1.215,1.213-1.215h1.572C19.914,35.639,20.459,36.184,20.459,36.854z    M17.941,32.658c0.439,0,0.855-0.083,1.258-0.201v2.182h-1.527c-0.448,0-0.864,0.136-1.213,0.366v-2.617   C16.926,32.552,17.419,32.658,17.941,32.658z M16.459,30.357v-5.035c0-0.755,0.614-1.369,1.369-1.369   c0.756,0,1.371,0.614,1.371,1.369v5.035c0,0.756-0.615,1.371-1.371,1.371C17.073,31.729,16.459,31.113,16.459,30.357z    M21.441,28.158c0,1.093-0.512,2.06-1.3,2.699c0.036-0.159,0.058-0.325,0.058-0.5v-5.035c0-1.307-1.063-2.369-2.371-2.369   c-0.608,0-1.158,0.237-1.578,0.615v-1.955c0-0.061-0.015-0.116-0.018-0.176c0.951,0.673,2.098,1.052,3.314,1.052   c0.473,0,0.94-0.067,1.396-0.182c0.312,0.519,0.499,1.118,0.499,1.767V28.158z M22.012,20.796   c-0.745,0.453-1.598,0.693-2.465,0.693c-1.674,0-3.191-0.853-4.062-2.28c-0.659-1.085-0.857-2.361-0.558-3.595   c0.299-1.232,1.061-2.274,2.145-2.934c0.729-0.444,1.566-0.679,2.422-0.679c0.377,0,0.753,0.044,1.121,0.132l-2.125,5.448   c-0.32-0.021-0.648,0.046-0.934,0.219c-0.37,0.226-0.632,0.581-0.734,1.004c-0.103,0.422-0.035,0.858,0.189,1.229   c0.297,0.489,0.816,0.781,1.391,0.781c0.297,0,0.589-0.082,0.844-0.237c0.227-0.138,0.401-0.326,0.531-0.538l2.472,0.6   C22.171,20.695,22.092,20.747,22.012,20.796z M18.727,19.723c-0.287,0.175-0.688,0.076-0.86-0.209   c-0.086-0.143-0.112-0.31-0.072-0.473c0.039-0.162,0.14-0.299,0.282-0.386c0.098-0.06,0.21-0.091,0.323-0.091   c0.221,0,0.421,0.112,0.534,0.299C19.113,19.158,19.021,19.545,18.727,19.723z M23.475,15.265c-0.081,0.05-0.171,0.073-0.26,0.073   c-0.168,0-0.333-0.085-0.427-0.24c-0.328-0.538-0.792-0.977-1.342-1.267c-0.16-0.085-0.247-0.246-0.258-0.415l0.15-0.385   c0.152-0.144,0.382-0.187,0.574-0.085c0.709,0.375,1.307,0.939,1.729,1.632C23.785,14.813,23.711,15.121,23.475,15.265z"/></g><text x="0" y="60" fill="#000000" font-size="5px" font-weight="bold" font-family="'Helvetica Neue', Helvetica, Arial-Unicode, Arial, Sans-serif">Created by Katrine Kolström</text><text x="0" y="65" fill="#000000" font-size="5px" font-weight="bold" font-family="'Helvetica Neue', Helvetica, Arial-Unicode, Arial, Sans-serif">from the Noun Project</text></svg>